<?xml version="1.0" encoding="UTF-8" standalone="no"?>
<svg width="37px" height="23px" viewBox="0 0 37 23" version="1.1" xmlns="http://www.w3.org/2000/svg" xmlns:xlink="http://www.w3.org/1999/xlink">
    <!-- Generator: Sketch 39.1 (31720) - http://www.bohemiancoding.com/sketch -->
    <title>Page 1</title>
    <desc>Created with Sketch.</desc>
    <defs></defs>
    <g id="Presentation" stroke="none" stroke-width="1" fill="none" fill-rule="evenodd" stroke-linecap="round" stroke-linejoin="round">
        <g id="Play" transform="translate(-178.000000, -744.000000)" stroke="#000000">
            <g id="Group-10" transform="translate(134.000000, 704.000000)">
                <g id="Group-15">
                    <g id="Group-Size" transform="translate(30.000000, 41.000000)">
                        <g id="Page-1" transform="translate(15.000000, 0.000000)">
                            <path d="M10.5,6.41666667 C10.5,8.6723 8.6723,10.5 6.41666667,10.5 C4.1594,10.5 2.33333333,8.6723 2.33333333,6.41666667 C2.33333333,4.16103333 4.1594,2.33333333 6.41666667,2.33333333 C8.6723,2.33333333 10.5,4.16103333 10.5,6.41666667 L10.5,6.41666667 Z" id="Stroke-1"></path>
                            <path d="M9.0059046,16.3333333 L0,16.3333333 C0,13.111875 2.89002676,10.5 6.45816035,10.5 C8.59742596,10.5 10.492896,11.4391667 11.6666667,12.8858333" id="Stroke-3"></path>
                            <path d="M32.6666667,6.41666667 C32.6666667,8.6723 30.8389667,10.5 28.5833333,10.5 C26.3260667,10.5 24.5,8.6723 24.5,6.41666667 C24.5,4.16103333 26.3260667,2.33333333 28.5833333,2.33333333 C30.8389667,2.33333333 32.6666667,4.16103333 32.6666667,6.41666667 L32.6666667,6.41666667 Z" id="Stroke-5"></path>
                            <path d="M23.3333333,12.8872917 C24.5066169,11.440625 26.4029142,10.5 28.5445198,10.5 C32.1111726,10.5 35,13.111875 35,16.3333333 L25.9962189,16.3333333" id="Stroke-7"></path>
                            <path d="M23.3333333,5.83333333 C23.3333333,9.0561248 20.7215377,11.6666667 17.5008076,11.6666667 C14.2768471,11.6666667 11.6666667,9.0561248 11.6666667,5.83333333 C11.6666667,2.6121573 14.2768471,0 17.5008076,0 C20.7215377,0 23.3333333,2.6121573 23.3333333,5.83333333 L23.3333333,5.83333333 Z" id="Stroke-9"></path>
                            <path d="M26.8333333,21 L8.16666667,21 C8.16666667,15.8455059 12.3426367,11.6666667 17.5008077,11.6666667 C22.6557479,11.6666667 26.8333333,15.8455059 26.8333333,21 L26.8333333,21 Z" id="Stroke-17"></path>
                        </g>
                    </g>
                </g>
            </g>
        </g>
    </g>
</svg>