<?xml version="1.0" encoding="UTF-8" standalone="no"?>
<svg width="97px" height="17px" viewBox="0 0 97 17" version="1.1" xmlns="http://www.w3.org/2000/svg" xmlns:xlink="http://www.w3.org/1999/xlink">
    <!-- Generator: Sketch 39.1 (31720) - http://www.bohemiancoding.com/sketch -->
    <title>Group 2</title>
    <desc>Created with Sketch.</desc>
    <defs></defs>
    <g id="Presentation" stroke="none" stroke-width="1" fill="none" fill-rule="evenodd" stroke-linecap="round" stroke-linejoin="round">
        <g id="Play" transform="translate(-476.000000, -746.000000)">
            <g id="Group-10" transform="translate(134.000000, 704.000000)">
                <g id="Group-15">
                    <g id="Group-13" transform="translate(340.000000, 43.000000)">
                        <g id="Difficulty">
                            <g id="Group-2" transform="translate(3.000000, 0.000000)">
                                <g id="Page-1-Copy-3" stroke="#FFBD17" fill="#FFBD17">
                                    <path d="M14.6875,7.5 C14.6875,11.47 11.46875,14.6875 7.5,14.6875 C3.52875,14.6875 0.3125,11.47 0.3125,7.5 C0.3125,3.53 3.52875,0.3125 7.5,0.3125 C11.46875,0.3125 14.6875,3.53 14.6875,7.5 L14.6875,7.5 Z" id="Stroke-1"></path>
                                </g>
                                <g id="Page-1-Copy-5" transform="translate(20.000000, 0.000000)" stroke="#FFBD17" fill="#FFBD17">
                                    <path d="M14.6875,7.5 C14.6875,11.47 11.46875,14.6875 7.5,14.6875 C3.52875,14.6875 0.3125,11.47 0.3125,7.5 C0.3125,3.53 3.52875,0.3125 7.5,0.3125 C11.46875,0.3125 14.6875,3.53 14.6875,7.5 L14.6875,7.5 Z" id="Stroke-1"></path>
                                </g>
                                <g id="Page-1-Copy-6" transform="translate(40.000000, 0.000000)" stroke="#FFBD17" fill="#FFBD17">
                                    <path d="M7.5,14.6875 C3.52875,14.6875 0.3125,11.47 0.3125,7.5 C0.3125,3.53 3.52875,0.3125 7.5,0.3125 C11.46875,0.3125 14.6875,3.53 14.6875,7.5 C14.6875,11.47 11.46875,14.6875 7.5,14.6875 Z" id="Stroke-1"></path>
                                </g>
                                <g id="Page-1-Copy-7" transform="translate(60.000000, 0.000000)" stroke="#000000">
                                    <path d="M14.6875,7.5 C14.6875,11.47 11.46875,14.6875 7.5,14.6875 C3.52875,14.6875 0.3125,11.47 0.3125,7.5 C0.3125,3.53 3.52875,0.3125 7.5,0.3125 C11.46875,0.3125 14.6875,3.53 14.6875,7.5 L14.6875,7.5 Z" id="Stroke-1"></path>
                                </g>
                                <g id="Page-1-Copy-8" transform="translate(80.000000, 0.000000)" stroke="#000000">
                                    <path d="M14.6875,7.5 C14.6875,11.47 11.46875,14.6875 7.5,14.6875 C3.52875,14.6875 0.3125,11.47 0.3125,7.5 C0.3125,3.53 3.52875,0.3125 7.5,0.3125 C11.46875,0.3125 14.6875,3.53 14.6875,7.5 L14.6875,7.5 Z" id="Stroke-1"></path>
                                </g>
                            </g>
                        </g>
                    </g>
                </g>
            </g>
        </g>
    </g>
</svg>